{
	"asset":{
		"generator":"Khronos glTF Blender I/O v4.3.47",
		"version":"2.0"
	},
	"scene":0,
	"scenes":[
		{
			"name":"Scene",
			"nodes":[
				0,
				37
			]
		}
	],
	"nodes":[
		{
			"name":"nodes[37]"
		},
		{
			"mesh":0,
			"name":"nodes[12]",
			"rotation":[
				0,
				-0.7071068286895752,
				0,
				0.7071068286895752
			],
			"translation":[
				6000.00146484375,
				-47.999969482421875,
				-52.49998474121094
			]
		},
		{
			"mesh":0,
			"name":"nodes[13]",
			"rotation":[
				0,
				-0.7071068286895752,
				0,
				0.7071068286895752
			],
			"translation":[
				103.99609375,
				-47.999969482421875,
				-52.49998474121094
			]
		},
		{
			"mesh":1,
			"name":"nodes[16]",
			"rotation":[
				0,
				-0.7071068286895752,
				0,
				0.7071068286895752
			],
			"translation":[
				6000.00146484375,
				-47.999969482421875,
				2.500011444091797
			]
		},
		{
			"mesh":1,
			"name":"nodes[17]",
			"rotation":[
				0,
				-0.7071068286895752,
				0,
				0.7071068286895752
			],
			"translation":[
				103.99609375,
				-47.999969482421875,
				2.500011444091797
			]
		},
		{
			"mesh":2,
			"name":"nodes[32]",
			"rotation":[
				0.5,
				-0.5,
				0.5,
				0.5
			],
			"translation":[
				56.9990234375,
				-48.99993896484375,
				35.00000762939453
			]
		},
		{
			"mesh":2,
			"name":"nodes[33]",
			"rotation":[
				0.5,
				-0.5,
				0.5,
				0.5
			],
			"translation":[
				56.9990234375,
				-48.99993896484375,
				-34.99998474121094
			]
		},
		{
			"mesh":2,
			"name":"nodes[34]",
			"rotation":[
				0.5,
				0.5,
				-0.5,
				0.5
			],
			"translation":[
				6056.99853515625,
				-48.99993896484375,
				-34.99998474121094
			]
		},
		{
			"mesh":2,
			"name":"nodes[35]",
			"rotation":[
				0.5,
				0.5,
				-0.5,
				0.5
			],
			"translation":[
				6056.99853515625,
				-48.99993896484375,
				35.00000762939453
			]
		},
		{
			"mesh":3,
			"name":"nodes[8]",
			"rotation":[
				0,
				0.70710688829422,
				-0.7071066498756409,
				0
			],
			"translation":[
				6108.99853515625,
				-51.99993896484375,
				1.1444091796875e-05
			]
		},
		{
			"mesh":3,
			"name":"nodes[9]",
			"rotation":[
				0.7071068286895752,
				0,
				0,
				0.7071068286895752
			],
			"translation":[
				4.9990234375,
				-51.99993896484375,
				1.1444091796875e-05
			]
		},
		{
			"children":[
				1,
				2,
				3,
				4,
				5,
				6,
				7,
				8,
				9,
				10
			],
			"mesh":4,
			"name":"nodes[19]",
			"rotation":[
				0,
				0,
				0.7071067094802856,
				0.7071068286895752
			],
			"translation":[
				-365.0007629394531,
				-6056.99853515625,
				-7.62939453125e-06
			]
		},
		{
			"mesh":5,
			"name":"nodes[20]",
			"rotation":[
				0.5,
				0.5,
				0.5,
				0.5
			],
			"translation":[
				-4.999999523162842,
				-34.9999885559082,
				-51.9999885559082
			]
		},
		{
			"mesh":5,
			"name":"nodes[21]",
			"rotation":[
				0.5,
				0.5,
				0.5,
				0.5
			],
			"translation":[
				-4.999999523162842,
				35.00000762939453,
				-51.9999885559082
			]
		},
		{
			"children":[
				12,
				13
			],
			"mesh":3,
			"name":"nodes[4]",
			"rotation":[
				0.7071068286895752,
				0,
				0,
				0.7071068286895752
			],
			"translation":[
				4.9999918937683105,
				-51.99998092651367,
				-7.62939453125e-06
			]
		},
		{
			"mesh":5,
			"name":"nodes[22]",
			"rotation":[
				0.5,
				0.5,
				0.5,
				0.5
			],
			"translation":[
				-5,
				-35.00000762939453,
				-51.9999885559082
			]
		},
		{
			"mesh":5,
			"name":"nodes[23]",
			"rotation":[
				0.5,
				0.5,
				0.5,
				0.5
			],
			"translation":[
				-5,
				34.9999885559082,
				-51.9999885559082
			]
		},
		{
			"children":[
				15,
				16
			],
			"mesh":3,
			"name":"nodes[5]",
			"rotation":[
				0,
				-0.7071068286895752,
				0.7071068286895752,
				4.750302551315144e-08
			],
			"translation":[
				3502.99951171875,
				-52.000450134277344,
				-7.62939453125e-06
			]
		},
		{
			"children":[
				11,
				14,
				17
			],
			"mesh":6,
			"name":"LS",
			"rotation":[
				0.7071068286895752,
				0.7071067094802856,
				0,
				0
			],
			"translation":[
				6056.99853515625,
				-3872.999267578125,
				-7.62939453125e-06
			]
		},
		{
			"mesh":0,
			"name":"nodes[10]",
			"rotation":[
				0,
				-0.7071067094802856,
				0,
				0.7071068286895752
			],
			"translation":[
				103.99609375,
				-47.99951171875,
				-52.5
			]
		},
		{
			"mesh":0,
			"name":"nodes[11]",
			"rotation":[
				0,
				-0.7071067094802856,
				0,
				0.7071068286895752
			],
			"translation":[
				6000.00146484375,
				-47.99951171875,
				-52.5
			]
		},
		{
			"mesh":1,
			"name":"nodes[14]",
			"rotation":[
				0,
				-0.7071067094802856,
				0,
				0.7071068286895752
			],
			"translation":[
				103.99609375,
				-47.99951171875,
				2.4999923706054688
			]
		},
		{
			"mesh":1,
			"name":"nodes[15]",
			"rotation":[
				0,
				-0.7071067094802856,
				0,
				0.7071068286895752
			],
			"translation":[
				6000.00146484375,
				-47.99951171875,
				2.4999923706054688
			]
		},
		{
			"mesh":2,
			"name":"nodes[28]",
			"rotation":[
				0.5,
				-0.5,
				0.5,
				0.5
			],
			"translation":[
				56.9990234375,
				-48.99951171875,
				-35
			]
		},
		{
			"mesh":2,
			"name":"nodes[29]",
			"rotation":[
				0.5,
				-0.5,
				0.5,
				0.5
			],
			"translation":[
				56.9990234375,
				-48.99951171875,
				34.99999237060547
			]
		},
		{
			"mesh":3,
			"name":"nodes[2]",
			"rotation":[
				0.7071068286895752,
				0,
				0,
				0.7071068286895752
			],
			"translation":[
				4.9990234375,
				-51.99951171875,
				-7.62939453125e-06
			]
		},
		{
			"mesh":2,
			"name":"nodes[30]",
			"rotation":[
				0.5,
				0.5,
				-0.5,
				0.5
			],
			"translation":[
				6056.99853515625,
				-48.99951171875,
				34.99999237060547
			]
		},
		{
			"mesh":2,
			"name":"nodes[31]",
			"rotation":[
				0.5,
				0.5,
				-0.5,
				0.5
			],
			"translation":[
				6056.99853515625,
				-48.99951171875,
				-35
			]
		},
		{
			"mesh":3,
			"name":"nodes[3]",
			"rotation":[
				0,
				0.7071066498756409,
				-0.70710688829422,
				0
			],
			"translation":[
				6108.99853515625,
				-51.99951171875,
				-7.62939453125e-06
			]
		},
		{
			"mesh":7,
			"name":"onderstrip",
			"rotation":[
				0,
				1,
				0,
				0
			],
			"scale":[
				999.9999389648438,
				999.9999389648438,
				999.9999389648438
			],
			"translation":[
				5999.99853515625,
				-3862.999267578125,
				59.9999885559082
			]
		},
		{
			"children":[
				18,
				19,
				20,
				21,
				22,
				23,
				24,
				25,
				26,
				27,
				28,
				29
			],
			"mesh":4,
			"name":"bovenligger",
			"rotation":[
				0.7071068286895752,
				0.7071067094802856,
				0,
				0
			],
			"translation":[
				3872.999267578125,
				-57.000518798828125,
				3.814697265625e-06
			]
		},
		{
			"mesh":5,
			"name":"nodes[24]",
			"rotation":[
				0.5,
				0.5,
				0.5,
				0.5
			],
			"translation":[
				-4.999999523162842,
				-34.9999885559082,
				-52
			]
		},
		{
			"mesh":5,
			"name":"nodes[25]",
			"rotation":[
				0.5,
				0.5,
				0.5,
				0.5
			],
			"translation":[
				-4.999999523162842,
				35.00000762939453,
				-52
			]
		},
		{
			"children":[
				31,
				32
			],
			"mesh":3,
			"name":"nodes[6]",
			"rotation":[
				0.7071068286895752,
				0,
				0,
				0.7071068286895752
			],
			"translation":[
				4.9999918937683105,
				-52,
				3.814697265625e-06
			]
		},
		{
			"mesh":5,
			"name":"nodes[26]",
			"rotation":[
				0.5,
				0.5,
				0.5,
				0.5
			],
			"translation":[
				-5,
				-35.00000762939453,
				-52
			]
		},
		{
			"mesh":5,
			"name":"nodes[27]",
			"rotation":[
				0.5,
				0.5,
				0.5,
				0.5
			],
			"translation":[
				-5,
				34.9999885559082,
				-52
			]
		},
		{
			"children":[
				34,
				35
			],
			"mesh":3,
			"name":"nodes[7]",
			"rotation":[
				0,
				-0.7071068286895752,
				0.7071068286895752,
				4.750302551315144e-08
			],
			"translation":[
				3502.99951171875,
				-52.00046920776367,
				3.814697265625e-06
			]
		},
		{
			"children":[
				30,
				33,
				36
			],
			"mesh":6,
			"name":"nodes[1]",
			"rotation":[
				0,
				0,
				0.7071068286895752,
				0.7071067094802856
			],
			"scale":[
				0.0010000001639127731,
				0.0010000001639127731,
				0.0010000000474974513
			],
			"translation":[
				5.942999839782715,
				-0.009999999776482582,
				0.05999999865889549
			]
		}
	],
	"materials":[
		{
			"name":"material.002",
			"pbrMetallicRoughness":{
				"baseColorFactor":[
					0.33716362714767456,
					0.33716362714767456,
					0.3967552185058594,
					1
				],
				"metallicFactor":0.5,
				"roughnessFactor":0.5
			}
		},
		{
			"name":"material.003",
			"pbrMetallicRoughness":{
				"baseColorFactor":[
					0.33716362714767456,
					0.33716362714767456,
					0.3967552185058594,
					1
				],
				"metallicFactor":0.5,
				"roughnessFactor":0.5
			}
		},
		{
			"name":"material.006",
			"pbrMetallicRoughness":{
				"baseColorFactor":[
					0,
					0,
					0,
					1
				],
				"metallicFactor":0.5,
				"roughnessFactor":0.5
			}
		},
		{
			"name":"material.001",
			"pbrMetallicRoughness":{
				"baseColorFactor":[
					0.33716362714767456,
					0.33716362714767456,
					0.3967552185058594,
					1
				],
				"metallicFactor":0.5,
				"roughnessFactor":0.5
			}
		},
		{
			"name":"material.004",
			"pbrMetallicRoughness":{
				"baseColorFactor":[
					0.0036765073891729116,
					0.2541520893573761,
					0.6239603757858276,
					1
				],
				"metallicFactor":0.5,
				"roughnessFactor":0.5
			}
		},
		{
			"name":"material.005",
			"pbrMetallicRoughness":{
				"baseColorFactor":[
					0,
					0,
					0,
					1
				],
				"metallicFactor":0.5,
				"roughnessFactor":0.5
			}
		},
		{
			"name":"material",
			"pbrMetallicRoughness":{
				"baseColorFactor":[
					0.012983032502233982,
					0.05612849071621895,
					0.22696587443351746,
					1
				],
				"metallicFactor":0.5,
				"roughnessFactor":0.5
			}
		},
		{
			"name":"material.007",
			"pbrMetallicRoughness":{
				"baseColorFactor":[
					0.0036765073891729116,
					0.2541520893573761,
					0.6239603757858276,
					1
				],
				"metallicFactor":0.5,
				"roughnessFactor":0.5
			}
		}
	],
	"meshes":[
		{
			"name":"meshes[2]",
			"primitives":[
				{
					"attributes":{
						"POSITION":0,
						"NORMAL":1
					},
					"indices":2,
					"material":0
				}
			]
		},
		{
			"name":"meshes[3]",
			"primitives":[
				{
					"attributes":{
						"POSITION":3,
						"NORMAL":4
					},
					"indices":2,
					"material":1
				}
			]
		},
		{
			"name":"meshes[6]",
			"primitives":[
				{
					"attributes":{
						"POSITION":5,
						"NORMAL":6
					},
					"indices":7,
					"material":2
				}
			]
		},
		{
			"name":"meshes[1]",
			"primitives":[
				{
					"attributes":{
						"POSITION":8,
						"NORMAL":9
					},
					"indices":10,
					"material":3
				}
			]
		},
		{
			"name":"meshes[4]",
			"primitives":[
				{
					"attributes":{
						"POSITION":11,
						"NORMAL":12
					},
					"indices":13,
					"material":4
				}
			]
		},
		{
			"name":"meshes[5]",
			"primitives":[
				{
					"attributes":{
						"POSITION":14,
						"NORMAL":15
					},
					"indices":7,
					"material":5
				}
			]
		},
		{
			"name":"meshes[0]",
			"primitives":[
				{
					"attributes":{
						"POSITION":16,
						"NORMAL":17
					},
					"indices":13,
					"material":6
				}
			]
		},
		{
			"name":"meshes[7]",
			"primitives":[
				{
					"attributes":{
						"POSITION":18,
						"NORMAL":19
					},
					"indices":10,
					"material":7
				}
			]
		}
	],
	"accessors":[
		{
			"bufferView":0,
			"componentType":5126,
			"count":60,
			"max":[
				50,
				96,
				0
			],
			"min":[
				0,
				0,
				-10
			],
			"type":"VEC3"
		},
		{
			"bufferView":1,
			"componentType":5126,
			"count":60,
			"type":"VEC3"
		},
		{
			"bufferView":2,
			"componentType":5123,
			"count":60,
			"type":"SCALAR"
		},
		{
			"bufferView":3,
			"componentType":5126,
			"count":60,
			"max":[
				50,
				96,
				0
			],
			"min":[
				0,
				0,
				-10
			],
			"type":"VEC3"
		},
		{
			"bufferView":4,
			"componentType":5126,
			"count":60,
			"type":"VEC3"
		},
		{
			"bufferView":5,
			"componentType":5126,
			"count":372,
			"max":[
				9,
				9,
				8
			],
			"min":[
				-9,
				-9,
				0
			],
			"type":"VEC3"
		},
		{
			"bufferView":6,
			"componentType":5126,
			"count":372,
			"type":"VEC3"
		},
		{
			"bufferView":7,
			"componentType":5123,
			"count":372,
			"type":"SCALAR"
		},
		{
			"bufferView":8,
			"componentType":5126,
			"count":36,
			"max":[
				5,
				60,
				0
			],
			"min":[
				-5,
				-60,
				-104
			],
			"type":"VEC3"
		},
		{
			"bufferView":9,
			"componentType":5126,
			"count":36,
			"type":"VEC3"
		},
		{
			"bufferView":10,
			"componentType":5123,
			"count":36,
			"type":"SCALAR"
		},
		{
			"bufferView":11,
			"componentType":5126,
			"count":132,
			"max":[
				6104,
				57,
				60
			],
			"min":[
				10,
				-57,
				-60
			],
			"type":"VEC3"
		},
		{
			"bufferView":12,
			"componentType":5126,
			"count":132,
			"type":"VEC3"
		},
		{
			"bufferView":13,
			"componentType":5123,
			"count":132,
			"type":"SCALAR"
		},
		{
			"bufferView":14,
			"componentType":5126,
			"count":372,
			"max":[
				9,
				9,
				10
			],
			"min":[
				-9,
				-9,
				0
			],
			"type":"VEC3"
		},
		{
			"bufferView":15,
			"componentType":5126,
			"count":372,
			"type":"VEC3"
		},
		{
			"bufferView":16,
			"componentType":5126,
			"count":132,
			"max":[
				3498,
				57,
				60
			],
			"min":[
				10,
				-57,
				-60
			],
			"type":"VEC3"
		},
		{
			"bufferView":17,
			"componentType":5126,
			"count":132,
			"type":"VEC3"
		},
		{
			"bufferView":18,
			"componentType":5126,
			"count":36,
			"max":[
				5.866000175476074,
				3.805999994277954,
				0.2199999988079071
			],
			"min":[
				0.019999999552965164,
				3.7960000038146973,
				-1.249000902703301e-16
			],
			"type":"VEC3"
		},
		{
			"bufferView":19,
			"componentType":5126,
			"count":36,
			"type":"VEC3"
		}
	],
	"bufferViews":[
		{
			"buffer":0,
			"byteLength":720,
			"byteOffset":0,
			"target":34962
		},
		{
			"buffer":0,
			"byteLength":720,
			"byteOffset":720,
			"target":34962
		},
		{
			"buffer":0,
			"byteLength":120,
			"byteOffset":1440,
			"target":34963
		},
		{
			"buffer":0,
			"byteLength":720,
			"byteOffset":1560,
			"target":34962
		},
		{
			"buffer":0,
			"byteLength":720,
			"byteOffset":2280,
			"target":34962
		},
		{
			"buffer":0,
			"byteLength":4464,
			"byteOffset":3000,
			"target":34962
		},
		{
			"buffer":0,
			"byteLength":4464,
			"byteOffset":7464,
			"target":34962
		},
		{
			"buffer":0,
			"byteLength":744,
			"byteOffset":11928,
			"target":34963
		},
		{
			"buffer":0,
			"byteLength":432,
			"byteOffset":12672,
			"target":34962
		},
		{
			"buffer":0,
			"byteLength":432,
			"byteOffset":13104,
			"target":34962
		},
		{
			"buffer":0,
			"byteLength":72,
			"byteOffset":13536,
			"target":34963
		},
		{
			"buffer":0,
			"byteLength":1584,
			"byteOffset":13608,
			"target":34962
		},
		{
			"buffer":0,
			"byteLength":1584,
			"byteOffset":15192,
			"target":34962
		},
		{
			"buffer":0,
			"byteLength":264,
			"byteOffset":16776,
			"target":34963
		},
		{
			"buffer":0,
			"byteLength":4464,
			"byteOffset":17040,
			"target":34962
		},
		{
			"buffer":0,
			"byteLength":4464,
			"byteOffset":21504,
			"target":34962
		},
		{
			"buffer":0,
			"byteLength":1584,
			"byteOffset":25968,
			"target":34962
		},
		{
			"buffer":0,
			"byteLength":1584,
			"byteOffset":27552,
			"target":34962
		},
		{
			"buffer":0,
			"byteLength":432,
			"byteOffset":29136,
			"target":34962
		},
		{
			"buffer":0,
			"byteLength":432,
			"byteOffset":29568,
			"target":34962
		}
	],
	"buffers":[
		{
			"byteLength":30000,
			"uri":"untitled.bin"
		}
	]
}
